<?xml version="1.0" encoding="utf-8"?>
<!DOCTYPE svg PUBLIC "-//W3C//DTD SVG 20010904//EN" "http://www.w3.org/TR/2001/REC-SVG-20010904/DTD/svg10.dtd">
<svg version="1.0" width="698.4pt" height="713.678pt" viewBox="0 0 698.4 713.678" preserveAspectRatio="xMidYMid meet" xmlns="http://www.w3.org/2000/svg">
  <g transform="translate(0,713.678)scale(.07275,.07275)">
    <path id="path1" d="M 4865 -9808 c -77 0 -199 4 -270 9 -71 4 -175 12 -230 19 -55 6 -183 24 -285 41 -101 17 -266 51 -365 76 -99 24 -252 68 -340 97 -88 29 -225 79 -305 111 -80 32 -217 92 -305 135 -88 42 -221 112 -295 154 -74 43 -187 112 -250 153 -63 42 -182 126 -265 188 -83 63 -193 150 -245 195 -52 45 -157 143 -234 218 -76 75 -175 178 -220 227 -45 49 -112 127 -149 173 -37 45 -99 125 -137 177 -38 52 -112 159 -164 237 -52 79 -119 188 -151 242 -31 55 -92 170 -135 256 -43 87 -99 204 -123 261 -24 57 -68 166 -96 242 -28 75 -72 208 -97 295 -25 86 -57 203 -70 258 -13 56 -35 164 -49 239 -14 76 -34 208 -45 295 -10 87 -24 256 -30 376 -8 157 -8 280 -1 436 6 120 18 279 26 353 8 74 24 189 35 255 11 66 36 193 56 282 20 90 56 227 80 306 23 78 65 204 93 280 27 75 74 193 104 262 30 69 84 185 121 258 36 72 93 179 126 237 33 58 98 164 145 236 47 72 130 190 184 263 55 72 141 180 192 241 52 61 175 191 274 290 99 99 233 224 297 277 65 54 172 138 238 188 66 50 147 108 180 130 33 22 124 79 202 128 79 48 240 135 358 194 118 59 266 128 328 153 61 25 200 74 307 110 107 36 257 80 333 99 75 19 186 45 246 57 60 12 182 32 272 45 90 13 225 29 299 34 74 6 259 10 410 10 151 0 338 -4 415 -10 77 -5 211 -19 297 -30 86 -12 216 -32 287 -45 72 -13 204 -42 294 -64 89 -23 231 -63 316 -90 85 -27 216 -74 292 -104 77 -30 205 -87 286 -126 82 -39 206 -105 278 -146 71 -41 184 -111 250 -155 66 -44 159 -110 208 -148 48 -37 131 -104 185 -150 53 -45 158 -143 232 -217 74 -74 175 -181 223 -238 48 -56 122 -148 165 -204 42 -56 120 -168 172 -248 52 -80 119 -189 149 -243 30 -53 81 -152 115 -218 33 -67 80 -168 104 -226 25 -57 68 -167 97 -244 28 -76 72 -209 97 -294 25 -85 58 -210 74 -276 15 -67 40 -186 54 -265 15 -79 37 -229 51 -333 13 -103 29 -293 36 -421 9 -178 9 -294 0 -496 -7 -145 -18 -323 -26 -394 -8 -71 -24 -194 -36 -273 l -22 -142 -2304 0 -2304 0 2 938 3 937 1322 3 1322 2 -5 33 c -3 17 -17 79 -31 137 -14 57 -40 148 -59 202 -19 54 -65 162 -104 240 -38 79 -96 185 -130 236 -33 50 -94 135 -135 187 -41 52 -122 142 -180 200 -58 58 -149 138 -203 179 -54 41 -133 97 -175 125 -42 28 -125 76 -185 108 -59 31 -152 75 -207 97 -55 23 -159 61 -230 85 -71 23 -189 56 -260 71 -71 16 -182 36 -245 45 -63 9 -174 21 -245 27 -74 6 -211 8 -317 4 -104 -3 -229 -11 -279 -17 -50 -6 -154 -23 -231 -39 -77 -16 -179 -40 -227 -55 -47 -14 -129 -42 -181 -61 -52 -19 -154 -63 -226 -98 -72 -35 -180 -92 -239 -127 -60 -34 -158 -99 -219 -143 -61 -45 -152 -116 -201 -158 -50 -42 -136 -125 -193 -183 -56 -59 -141 -155 -188 -214 -47 -58 -118 -155 -158 -216 -40 -61 -103 -164 -139 -230 -36 -66 -89 -173 -117 -237 -27 -65 -68 -173 -91 -240 -22 -68 -54 -179 -70 -247 -16 -67 -39 -180 -50 -250 -16 -94 -22 -190 -26 -381 -4 -195 -1 -286 11 -388 9 -72 28 -187 42 -254 14 -67 41 -176 60 -242 19 -67 60 -184 90 -261 31 -77 85 -195 120 -263 35 -67 85 -157 112 -200 26 -42 79 -122 118 -177 39 -55 121 -156 181 -225 60 -69 156 -168 214 -221 57 -53 142 -127 189 -164 47 -37 141 -105 210 -150 69 -45 172 -107 230 -138 58 -31 148 -75 200 -98 52 -23 146 -59 208 -80 61 -22 163 -52 224 -68 62 -16 170 -39 240 -50 71 -12 192 -25 270 -30 79 -5 203 -7 276 -5 72 2 188 11 257 19 69 8 171 24 227 36 57 12 155 36 218 54 63 18 165 52 225 76 61 24 166 72 235 107 69 35 183 102 255 150 71 48 157 110 191 137 34 27 88 73 121 102 l 59 52 699 -699 698 -698 -58 -54 c -33 -29 -88 -78 -124 -109 -37 -31 -109 -90 -162 -131 -53 -41 -145 -109 -205 -150 -60 -42 -157 -105 -215 -141 -58 -36 -168 -99 -245 -140 -76 -42 -204 -104 -284 -140 -80 -36 -206 -87 -280 -115 -74 -28 -189 -67 -255 -87 -66 -20 -181 -52 -255 -70 -74 -19 -197 -46 -274 -60 -76 -14 -211 -34 -300 -45 -88 -11 -242 -24 -341 -30 -99 -5 -243 -9 -320 -8 z " />
  </g>
</svg>