<?xml version="1.0" encoding="utf-8"?>
<!DOCTYPE svg PUBLIC "-//W3C//DTD SVG 20010904//EN" "http://www.w3.org/TR/2001/REC-SVG-20010904/DTD/svg10.dtd">
<svg version="1.0" width="96pt" height="96pt" viewBox="0 0 96 96" preserveAspectRatio="xMidYMid meet" xmlns="http://www.w3.org/2000/svg">
  <g transform="translate(0,96)scale(.075,.075)">
    <path id="path1" d="M 205 -1109 c -68 38 -57 136 17 154 13 3 214 4 446 3 l 424 -3 19 -24 c 24 -30 24 -82 0 -112 l -19 -24 -434 -2 c -303 -2 -439 1 -453 8 z M 205 -709 c -68 38 -57 136 17 154 13 3 214 4 446 3 l 424 -3 19 -24 c 24 -30 24 -82 0 -112 l -19 -24 -434 -2 c -303 -2 -439 1 -453 8 z M 205 -309 c -68 38 -57 136 17 154 13 3 214 4 446 3 l 424 -3 19 -24 c 24 -30 24 -82 0 -112 l -19 -24 -434 -2 c -303 -2 -439 1 -453 8 z " />
  </g>
</svg>