<?xml version="1.0" encoding="utf-8"?>
<!DOCTYPE svg PUBLIC "-//W3C//DTD SVG 20010904//EN" "http://www.w3.org/TR/2001/REC-SVG-20010904/DTD/svg10.dtd">
<svg version="1.0" width="614.25pt" height="614.25pt" viewBox="0 0 614.25 614.25" preserveAspectRatio="xMidYMid meet" xmlns="http://www.w3.org/2000/svg">
  <g transform="translate(0,614.25)scale(.06825,.06825)">
    <path id="path1" d="M 3975 -8858 c -2 7 -88 272 -190 588 -102 316 -190 584 -194 595 l -9 21 -345 139 -345 139 -575 -276 -575 -275 -353 353 -354 354 284 567 283 568 -125 305 c -69 168 -132 321 -140 340 l -14 35 -121 43 c -171 59 -988 349 -1040 368 l -42 16 2 496 3 495 606 200 606 200 138 335 c 76 184 138 340 138 346 0 7 -122 268 -272 581 l -272 569 354 354 354 354 563 -282 564 -282 31 9 c 16 6 170 68 341 138 l 310 129 104 290 c 58 160 154 428 215 596 l 112 305 500 3 500 2 23 -77 c 13 -43 101 -314 195 -602 l 172 -523 16 -10 c 9 -5 165 -69 347 -143 l 330 -133 576 275 576 276 354 -354 354 -354 -285 -560 -285 -560 3 -21 c 2 -12 66 -168 143 -347 l 139 -326 100 -35 c 127 -45 1070 -384 1090 -392 l 15 -6 0 -493 0 -493 -608 -201 -609 -201 -137 -332 c -75 -183 -136 -339 -136 -346 0 -8 117 -259 260 -558 143 -299 265 -556 272 -570 l 12 -25 -354 -354 -353 -353 -568 284 -568 284 -338 -139 -338 -139 -89 -244 c -48 -134 -146 -403 -216 -598 l -128 -355 -501 -3 -502 -2 -4 12 z m 944 2363 c 344 44 669 142 962 291 l 131 67 117 77 c 145 96 268 198 392 326 l 96 100 70 94 c 88 121 132 194 192 322 l 49 103 31 97 c 42 131 59 218 73 371 l 12 127 -12 128 c -14 149 -32 241 -74 372 l -30 95 -49 103 c -61 131 -102 198 -191 319 l -71 97 -96 100 c -125 129 -243 228 -390 325 l -119 78 -131 67 c -293 149 -611 245 -968 293 l -128 17 -245 0 -245 0 -128 -17 c -357 -48 -675 -144 -968 -293 l -131 -67 -122 -80 c -148 -99 -261 -193 -387 -323 l -96 -100 -71 -97 c -90 -121 -130 -189 -193 -322 l -49 -105 -29 -92 c -41 -130 -59 -223 -73 -370 l -12 -128 12 -127 c 14 -150 32 -242 74 -373 l 30 -95 49 -103 c 60 -128 104 -201 192 -322 l 70 -94 96 -100 c 124 -128 247 -230 392 -326 l 117 -77 131 -67 c 238 -121 469 -200 751 -256 l 145 -29 110 -10 c 61 -6 128 -13 150 -15 22 -2 130 -2 240 0 l 200 3 124 16 z M 4380 -5354 c -94 12 -213 38 -300 66 l -95 30 -90 46 c -113 56 -187 106 -265 179 l -62 57 -44 61 c -53 75 -98 169 -119 250 l -15 59 0 81 0 81 15 59 c 21 81 66 175 119 250 l 44 61 62 57 c 78 73 156 125 267 181 l 88 44 95 30 c 53 17 136 39 185 49 l 90 18 200 0 200 0 90 -18 c 49 -10 132 -32 185 -49 l 95 -30 86 -43 c 155 -76 277 -172 365 -286 l 45 -58 34 -73 c 19 -40 41 -100 50 -133 l 15 -59 0 -81 0 -81 -15 -59 c -21 -81 -66 -175 -119 -250 l -44 -61 -62 -57 c -154 -143 -363 -245 -612 -298 l -93 -20 -180 -4 c -99 -2 -196 -1 -215 1 z " />
  </g>
</svg>